<svg xmlns="http://www.w3.org/2000/svg" viewBox="0 0 24 24" fill="#94a3b8">
  <path d="M12 .5C5.73.5.5 5.73.5 12c0 5.08 3.29 9.39 7.86 10.91.57.11.78-.25.78-.55 0-.27-.01-1-.02-1.96-3.2.7-3.88-1.44-3.88-1.44-.52-1.32-1.27-1.67-1.27-1.67-1.04-.71.08-.7.08-.7 1.15.08 1.76 1.18 1.76 1.18 1.02 1.75 2.68 1.25 3.33.96.1-.75.4-1.25.72-1.54-2.55-.29-5.23-1.28-5.23-5.7 0-1.26.45-2.29 1.18-3.1-.12-.29-.51-1.47.11-3.06 0 0 .96-.31 3.15 1.18a10.9 10.9 0 012.87-.39c.98 0 1.97.13 2.88.39 2.18-1.49 3.14-1.18 3.14-1.18.63 1.59.24 2.77.12 3.06.74.81 1.18 1.84 1.18 3.1 0 4.43-2.69 5.4-5.25 5.69.41.36.77 1.07.77 2.16 0 1.56-.01 2.82-.01 3.2 0 .3.21.67.79.55C20.71 21.39 24 17.08 24 12c0-6.27-5.23-11.5-12-11.5z"/>
</svg>